/* XPM */
static char *out[] = {
/* columns rows colors chars-per-pixel */
"300 30 14 1 ",
"  c None",
". c #583C28",
"X c #3D5D35",
"o c #785439",
"O c #406238",
"+ c #45693B",
"@ c #476C3D",
"# c #735743",
"$ c #4C7441",
"% c gray42",
"& c #946B49",
"* c #B7835B",
"= c gray52",
"- c white",
/* pixels */
"                                                                                                                                                                                                                                                                                                            ",
"                                                                                                                                                                                                                                                                                                            ",
"                                                                                                                                                                                                                                                                                                            ",
"         ------------                     ------                     ------------                  ------------                -----      -----              ----------------                --------------              ----------------                ------------                  ------------         ",
"        -@..OO..O@@@@-                   -@..O..-                   -@..OO..O@@@@-                -@..OO..O@@@@-              -+@@..-    -@@@++-            -+@@..OO..O@@@@++-              -@..OO..O@@@@++-            -+@@..OO..O@@@@++-              -@..OO..O@@@@-                -@..OO..O@@@@-        ",
"       -@@..OO..O@@@@+-                  -@..O..-                  -@@..OO..O@@@@+-              -@@..OO..O@@@@+-             -+@@..-    -@@@++-            -+@@..OO..O@@@@++-             -@@..OO..O@@@@++-            -+@@..OO..O@@@@++-             -@@..OO..O@@@@+-              -@@..OO..O@@@@+-       ",
"      -.$$......X..$$..-               ---$.....-                 -.$$......X..$$..-            -.$$......X..$$..-            -.$$..-    -.$$..-            -.$$......X..$$..-            -.$$......X..$$..-            -.$$......X..$$..-            -.$$......X..$$..-            -.$$......X..$$..-      ",
"      -.$$......X..$$..-              -$$++@@...-                 -.$$..------.$$..-            -.$$......X..$$..-            -.$$..-    -.$$..-            -.$$......X..$$..-            -.$$......X..$$..-            -.$$......X..$$..-            -.$$......X..$$..-            -.$$...----..$$..-      ",
"      -*..&&o----....%%-              -....$$ooo-                 -*..&-      -..%%-            -*..&-------...%%-            -*..&&-    -...%%-            -*..&&-----------             -*..&&-----------              -----------...%%-            -*..&&o----....%%-            -*..&&-    -...%%-      ",
"      -&oo&&-    -ooo..-              -o...$$...-                 -&oo&-      -oo..-             ----      -ooo..-            -&oo&&-    -ooo..-            -&oo&&-                       -&oo&&-                                 -oooo.-             -&oo&&-    -ooo..-            -&oo&&-    -ooo..-      ",
"      -&oo&&-    -ooo..-               ---o&&...-                  ----       -oo..-                       -ooo..-            -&oo&&-    -ooo..-            -&oo&&-                       -&oo&&-                                -.oooo-              -&oo&&-    -ooo..-            -&oo&&-    -ooo..-      ",
"      -o==oo-    -o****-                 -=ooo**-                            -o****-                       -o****-            -o==oo-    -o****-            -o==oo---------               -o==oo---------                        -*oo**-              -o==oo-    -o****-            -o==oo-    -o****-      ",
"      -o==oo-    -o****-                 -=ooo**-                           -oo***-                 --------o****-            -o==oo-    -o****-            -o==oooo***oo**-              -o==oooo***oo**-                      -**oo*-               -o==ooo----oo****-            -o==ooo----oo****-      ",
"      -*&&&&-    -.&&&&-                 -&&&ooo-                          -&..&&-                 -&&oooo&..&&&&-            -*&&&&------.&&&&-            -*&&&&oooo&..&&&-             -*&&&&oooo&..&&&-                     -o&..&-               -*&&&&oooo&..&&&&-            -*&&&&oooo&..&&&&-      ",
"      -*&&&&-    -.&&&&-                 -&&&ooo-                         -o&..&-                  -&&oooo&..&&&&-            -*&&&&oooo&..&&&&-             -&&&&oooo&..&&&&-            -*&&&&oooo&..&&&&-                   -oo&..-                -*&&&&oooo&..&&&&-            -*&&&&oooo&..&&&&-      ",
"      -*&&&&-    -.&&&&-                 -&&&ooo-                        -oo&..-                   -&&oooo&..&&&&-            -*&&&&oooo&..&&&&-              -&&&oooo&..&&&&-            -*&&&&oooo&..&&&&-                   -oo&..-                -*&&&&oooo&..&&&&-             -&&&&oooo&..&&&&-      ",
"      -&oo&&-    -&&&oo-                 -o&&o..-                       -o..o&-                    -&&oo..o&&&&oo-            -&oo&&oo..o&&&&oo-               ---------&&&oo-            -&oo&&o----&&&&oo-                   -..o&&-                -&oo&&oo..o&&&&oo-              -o&&oo..o&&&&oo-      ",
"      -&oo&&-    -&&&oo-                 -o&&o..-                      -oo..o-                      --------&&&oo-            -&oo&&oo..o&&&&oo-                       -&&&oo-            -&oo&&-    -&&&oo-                  -o..o&-                 -&oo&&o----&&&&oo-               ---------&&&oo-      ",
"      -ooo..-    -ooooo-                 -o...oo-                     -...oo-                              -ooooo-            -ooo....ooooooooo-                       -ooooo-            -ooo..-    -ooooo-                  -.oooo-                 -ooo..-    -ooooo-                       -ooooo-      ",
"      -ooo..-    -ooooo-                 -o...oo-                    -....o-                               -ooooo-             -----------ooooo-             ----      -ooooo-            -ooo..-    -ooooo-                  -.oooo-                 -ooo..-    -ooooo-                       -ooooo-      ",
"      -***oo-    -***..-                 -*oo*&&-                   -*oo**-                      ----      -***..-                       -***..-            -***o-     -***..-            -***oo-    -***..-                  -*&&.*-                 -***oo-    -***..-                       -***..-      ",
"      -&&&**o----&&&&oo-               ---&**o&&---                -&&**o----------             -&&&*-------&&&oo-                       -&&&oo-            -&&&**-    -&&&oo-            -&&&**o----&&&&oo-                 -oo&&%-                  -&&&**o----&&&&oo-             -----------&&&oo-      ",
"      -&&&**oo&&%&&&&oo-              -&**&**o&&&&&-              -&&&**oo&&%&&&&oo-            -&&&**oo&&%&&&&oo-                       -&&&oo-            -&&&**------&&&oo-            -&&&**oo&&%&&&&oo-                 -oo&&%-                  -&&&**oo&&%&&&&oo-            -&&&**oo&&%&&&&oo-      ",
"      -o&&&&**ooooooooo-              -&&&&&&*ooooo-              -o&&&&**ooooooooo-            -o&&&&**ooooooooo-                       -ooooo-            -o&&&&**ooooooooo-            -o&&&&**ooooooooo-                 -**ooo-                  -o&&&&**ooooooooo-            -o&&&&**ooooooooo-      ",
"       -&&&&**oooooooo-               -&&&&&&*ooooo-              -o&&&&**ooooooooo-             -&&&&**oooooooo-                        -ooooo-             -&&&&**oooooooo-              -&&&&**oooooooo-                  -**ooo-                   -&&&&**oooooooo-             -o&&&&**oooooooo-       ",
"        -#oo&&&&o..**-                -#oo#oo&&&.**-              -o##oo&&&&o..**..-              -#oo&&&&o..**-                         -.**..-              -#oo&&&&o..**-                -#oo&&&&o..**-                   -&&&&o-                    -#oo&&&&o..**-              -o##oo&&&&o..**-        ",
"         ------------                  ------------                ----------------                ------------                           -----                ------------                  ------------                     -----                      ------------                --------------         ",
"                                                                                                                                                                                                                                                                                                            ",
"                                                                                                                                                                                                                                                                                                            ",
"                                                                                                                                                                                                                                                                                                            "
};
