/* XPM */
static char *result[] = {
/* columns rows colors chars-per-pixel */
"64 64 256 2 ",
"   c black",
".  c #010101",
"X  c #020202",
"o  c gray1",
"O  c #040404",
"+  c gray2",
"@  c #060606",
"#  c #070707",
"$  c gray3",
"%  c #090909",
"&  c gray4",
"*  c #0B0B0B",
"=  c #0C0C0C",
"-  c gray5",
";  c #0E0E0E",
":  c gray6",
">  c #101010",
",  c #111111",
"<  c gray7",
"1  c #131313",
"2  c gray8",
"3  c #151515",
"4  c #161616",
"5  c gray9",
"6  c #181818",
"7  c #191919",
"8  c gray10",
"9  c #1B1B1B",
"0  c gray11",
"q  c #1D1D1D",
"w  c #1E1E1E",
"e  c gray12",
"r  c #202020",
"t  c gray13",
"y  c #222222",
"u  c #232323",
"i  c gray14",
"p  c #252525",
"a  c gray15",
"s  c #272727",
"d  c #282828",
"f  c gray16",
"g  c #2A2A2A",
"h  c gray17",
"j  c #2C2C2C",
"k  c #2D2D2D",
"l  c gray18",
"z  c #2F2F2F",
"x  c gray19",
"c  c #313131",
"v  c #323232",
"b  c gray20",
"n  c #343434",
"m  c #353535",
"M  c gray21",
"N  c #373737",
"B  c gray22",
"V  c #393939",
"C  c #3A3A3A",
"Z  c gray23",
"A  c #3C3C3C",
"S  c gray24",
"D  c #3E3E3E",
"F  c #3F3F3F",
"G  c gray25",
"H  c #414141",
"J  c gray26",
"K  c #434343",
"L  c #444444",
"P  c gray27",
"I  c #464646",
"U  c gray28",
"Y  c #484848",
"T  c #494949",
"R  c gray29",
"E  c #4B4B4B",
"W  c #4C4C4C",
"Q  c gray30",
"!  c #4E4E4E",
"~  c gray31",
"^  c #505050",
"/  c #515151",
"(  c gray32",
")  c #535353",
"_  c gray33",
"`  c #555555",
"'  c #565656",
"]  c gray34",
"[  c #585858",
"{  c gray35",
"}  c #5A5A5A",
"|  c #5B5B5B",
" . c gray36",
".. c #5D5D5D",
"X. c gray37",
"o. c #5F5F5F",
"O. c #606060",
"+. c gray38",
"@. c #626262",
"#. c gray39",
"$. c #646464",
"%. c #656565",
"&. c gray40",
"*. c #676767",
"=. c #686868",
"-. c DimGray",
";. c #6A6A6A",
":. c gray42",
">. c #6C6C6C",
",. c #6D6D6D",
"<. c gray43",
"1. c #6F6F6F",
"2. c gray44",
"3. c #717171",
"4. c #727272",
"5. c gray45",
"6. c #747474",
"7. c gray46",
"8. c #767676",
"9. c #777777",
"0. c gray47",
"q. c #797979",
"w. c gray48",
"e. c #7B7B7B",
"r. c #7C7C7C",
"t. c gray49",
"y. c #7E7E7E",
"u. c gray50",
"i. c #808080",
"p. c #818181",
"a. c gray51",
"s. c #838383",
"d. c #848484",
"f. c gray52",
"g. c #868686",
"h. c gray53",
"j. c #888888",
"k. c #898989",
"l. c gray54",
"z. c #8B8B8B",
"x. c gray55",
"c. c #8D8D8D",
"v. c #8E8E8E",
"b. c gray56",
"n. c #909090",
"m. c gray57",
"M. c #929292",
"N. c #939393",
"B. c gray58",
"V. c #959595",
"C. c gray59",
"Z. c #979797",
"A. c #989898",
"S. c gray60",
"D. c #9A9A9A",
"F. c #9B9B9B",
"G. c gray61",
"H. c #9D9D9D",
"J. c gray62",
"K. c #9F9F9F",
"L. c #A0A0A0",
"P. c gray63",
"I. c #A2A2A2",
"U. c gray64",
"Y. c #A4A4A4",
"T. c #A5A5A5",
"R. c gray65",
"E. c #A7A7A7",
"W. c gray66",
"Q. c #A9A9A9",
"!. c #AAAAAA",
"~. c gray67",
"^. c #ACACAC",
"/. c gray68",
"(. c #AEAEAE",
"). c #AFAFAF",
"_. c gray69",
"`. c #B1B1B1",
"'. c #B2B2B2",
"]. c gray70",
"[. c #B4B4B4",
"{. c gray71",
"}. c #B6B6B6",
"|. c #B7B7B7",
" X c gray72",
".X c #B9B9B9",
"XX c gray73",
"oX c #BBBBBB",
"OX c #BCBCBC",
"+X c gray74",
"@X c gray",
"#X c gray75",
"$X c #C0C0C0",
"%X c #C1C1C1",
"&X c gray76",
"*X c #C3C3C3",
"=X c gray77",
"-X c #C5C5C5",
";X c #C6C6C6",
":X c gray78",
">X c #C8C8C8",
",X c gray79",
"<X c #CACACA",
"1X c #CBCBCB",
"2X c gray80",
"3X c #CDCDCD",
"4X c #CECECE",
"5X c gray81",
"6X c #D0D0D0",
"7X c gray82",
"8X c #D2D2D2",
"9X c LightGray",
"0X c gray83",
"qX c #D5D5D5",
"wX c gray84",
"eX c #D7D7D7",
"rX c #D8D8D8",
"tX c gray85",
"yX c #DADADA",
"uX c gray86",
"iX c gainsboro",
"pX c #DDDDDD",
"aX c gray87",
"sX c #DFDFDF",
"dX c gray88",
"fX c #E1E1E1",
"gX c #E2E2E2",
"hX c gray89",
"jX c #E4E4E4",
"kX c gray90",
"lX c #E6E6E6",
"zX c #E7E7E7",
"xX c gray91",
"cX c #E9E9E9",
"vX c #EAEAEA",
"bX c gray92",
"nX c #ECECEC",
"mX c gray93",
"MX c #EEEEEE",
"NX c #EFEFEF",
"BX c gray94",
"VX c #F1F1F1",
"CX c gray95",
"ZX c #F3F3F3",
"AX c #F4F4F4",
"SX c gray96",
"DX c #F6F6F6",
"FX c gray97",
"GX c #F8F8F8",
"HX c #F9F9F9",
"JX c gray98",
"KX c #FBFBFB",
"LX c gray99",
"PX c #FDFDFD",
"IX c #FEFEFE",
"UX c white",
/* pixels */
"  * ` +.+.+.+.+.+.{ s s { @.+.O.O.+.+.+.+...P H H P ..+.+.+.+.O.+.+.O.+.+.+.+.+.+.{ d 0 o     * ` X.P H J S i i D D i 0 o       ",
"& 3 ' +...........' l l ) } O.+.+.O.......} Y P J P } ......O.+.+.+.+.O...........' h r # o   * ` X.P H J D d d D D d r # o     ",
"` ' O...Y P P P P Y ] ) l z } +.+...T P P Y } } P J P P P T ..+.+.+.+...T P P P P L F V r 6 X * ' X.P H J H D D H H D C t 7 o   ",
"+.+...} Y P P P H P } ' s s ` ....{ P H D H { } P H H H H P { ........{ P H H H H J P J j i # - E _ U P J J J J J H D C p q o   ",
"+...Y Y } ....} P J P H i i H I P P J D s d H P J H J J H J P P P P P P J H J J H P } ..} ( i 8 - 3 ) } P H J J J D d i t 0 o   ",
"+...Y Y } ....} P H H D h h D H H H J D d s D J H J J J J H H H H H H H H J J J H P } ..X.' d 0 o * ` X.P H J J J S i r t q o   ",
"+.O.X.} Y P P P J H H L ' ' L H J J J H D D H J J J J J J J J J J J J J J J J J H J P P I H p 0 o * ` X.P H J J J D i r t q o   ",
"+.O.X.} Y L J H H J H P } } P H J J H J J J J H J J J J J J J J J J J J J J J J J H H H J S p w - 3 ) } P H J J J D i r t q o   ",
"+...Y Y } } P H H J J J P P J H J J J J J J J J H J J J J H J J J J J J J J J J J J H J J D i a ~ _ U P J H H J J D p r t q o   ",
"+...P L } } P H J H D D H H H J J J J J J J J J J H D D H J J J J J J J J J J J J J J H D Z g l ] | P H H J J H D C i r t q o   ",
"+...P H P P J H J D d d D J J J J J J J J J J J J D d d D J J J J J J H H H H J J J J D d h ) ] Y P J H J J J D d i t r t q o   ",
"+...T P J H H J J D d d D J J J J J J J J J J J J S i i S J J J J J H J P P J H J J J S i s ' } P H H J J J J S i r i i t 0 o   ",
"+.O...{ P H J J J H D D H J J J J J J J J J H J J D i i S J J J J J H P } } P H J J J S i i H P J H J J J J J S i i C C i 0 o   ",
"O.+.+...P H J J H J J J J H J J J J J J J J J H D C s d D J J J J J H P } } P H J J J D d s C D H J J J J J J D d d D D p 0 o   ",
"O.+.+...P H J J J J J J J J J J J J J J H J J D d s C D H J J J J J H J P P J J J H J H D C s d D J J J H J J H D D J D p 0 o   ",
"+.O...{ P H J J J J J J J J J J J J J J J H D C s d J P J H J J J J J H H H D D H J H J J D d d D J J J J H D D H H D C i 0 o   ",
"+...T P J H J J J J J J J J J J H J J J J D d s C J { } P H J J J J J J J D d d D J J J J H D D H J J J J D d d D D d i t 0 o   ",
"+...P H H J J J J J J J J J J J J H D D H D i i D P } } P H J J J J J J J D d d D J J J H J J J J H J J J S i i D D i r t q o   ",
"+...P H H J J J J J J J J J J J J D d d D D i i S J P P J H J J J J J J J H D D H J J J J J J J J J H J J D i i D D i r t q o   ",
"..} Y P J H J J J J J J J J J J J D d d D D i i D J H H H J J J J J J J H J J J J H J J J J J J J J J H D C s d D D i r t q o   ",
"P Y } } P H J J J J J J J J J J J H D D J D i i S J H J J J J J J J J J J J J J J J J J J J H J J J J D d s C D J D i r t q o   ",
"P Y } } P H J J J J J J J J J J H J J H D C r t G P J H J J J J J J J J J J J J J J J J J J J H D D H D d d D H D C d i t 0 o   ",
"..} Y P J H J J J J H J J J J H H J J D d t # ; ( } P H J J J J J J H J J J J J J J J H J J J D d d D J D D J D d s Z C i 0 o   ",
"..} P H H J J J J J J H D D H J J H D V t 7 X * ` X.P H J J J J J J J H D S D D S D H J J J J D d s C D D D D C i i C C i 0 o   ",
"P P J H H J J J J J J D d d D J J D d r # o   * ` X.P J J J J J J J J D d i i i i d D J J J J H D Z d i i i i i t t i i t q o   ",
"H H H J J H D S S D H D d d D H D C i 0 o     * ` ..J S D D D D D D D C i r r r r i C D S D H H D C i r i i t r r r r r q 7 o   ",
"J J J J J D d i i d D J D D J D d i t q O     * ' | j i i i i i i i p i t r r t t t i p i d D D d i t i C Z i t t t t q # o     ",
"C C S D D C i r r i C D D D D C i r q 7 o     & E ^ g u t r r r r r r r r t t r q 0 0 q r i C C i r r i Z C t 0 q q q 7 o       ",
"# * t p p i t t t t i p p p p i t q # o       . % , B Z i t t t t t t t t t t q # o o # q t i i t t t t p t # o o o O o         ",
"  o 7 0 0 0 0 q q 0 0 0 0 0 0 0 q 7 o             # b N r 0 q q q q q q q q q 7 o     o 7 q 0 0 0 q q 0 q 7 o                   ",
"    X o o o o o o o o o o o o o o o                 # # O o o o o o o o o o o X         o o o o o o o o o X                     ",
"# $ * * * * * & $ # # # O o o O # # O o o O # # O o               . & * * * * * * * * & O o       . & * * * * * * * $ $ * * $ # ",
"V S ( ` ` ` ` ( S V C M r 0 0 r N M r 0 0 r M M r 7 o             & E ' ` ` ` ` ` ` ` ! u 6 o     & E ` ` ` ` ` ` ( S S ( ( S V ",
"J P } X.X.X.X.} P J J D d i t i Z Z d p p d F F f r $ o       . % 4 ] +.X.....X.+.+.@.} x i $ o   * ` @.+.+.+.+.X.} P P } } P J ",
"H J P P P P P P J H J H D C i t i d Z D S D H H D C t 7 o     & R ] O...Y P P Y ..+.+.O.} ( i 6 X * ` +.+.+.+...T P J J P P J H ",
"P P J H H H H H H J H J J D d i r i D J J H D D J D p q # o   * ' +...} Y P P Y } ......X.' j r # ; ` +.......{ H D H J H H H J ",
"..} P H J J J J J J J J J H D C i i D J J D d d D D i r q 7 X * ` X.Y Y } ....} Y P P P P L F V r i { X.T P P H d s D J J J J J ",
"..} P H J J J J J J J J H J J D i i D J J D d d D D d i t q o * ` ..P P ..+.X.} P H H H H H J D i d ' } P H H D s d D J J J J J ",
"P P J H J J J J J J J J J H J S i i S J J H D D H H D C i 0 o * ` X.P P ..X.T P J H J J H J J D i i H P J H J H D D H J J J J J ",
"H H H J J J J J J J J J H J P H d d D J H J J H D D J D p 0 o * ` X.P P } } P H H J J J J H D C s s C D H J H J J J J H J J J J ",
"J J H J J J J H J J J J H P } { H D H J J J J D d d D D p 0 o * ` X.P J P P J H J J H J J D d s Z Z s d D J J J J J J J J J J J ",
"J J J H D D H J J J J J H P } } P J J H J J J S i i D D p 0 o * ` X.P J P P J H J J J H D C s d D D i i S J J J J J J J J J J J ",
"J J J D d d D J J J J J H J P P J H J J J J J S i i D D p 0 o * ` X.P P } } P H J J J D d s C D H D i i D J J H J J J J J J J J ",
"J J J D d d D J J J J J J H H H H J J J J J J D d s Z C i 0 o * ` X.P P } } P H J J J D d d D J J D d s C D H J J J J J J J J J ",
"J J J H D D H H H J J J H J J J J H J J J J J H D C d i t 0 o * ` X.P J P P J H J J J H D D H J J H D C s d D J J J H J J J J H ",
"J J H J J J P P J H J J J H D D H J J J J J H J J D i r t q o * ` X.P H H H H J J J H J J J J H H J J D d d D J J J J H D D H J ",
"J J J J H P } } P H J J J D d d D J J J H J J J J D i r t q o * ` X.P H J J J H H H H J J J J J J J J H D D H J J J J D d d D J ",
"J J J J H P } } P H J J J S i i S J J J J H D D H D i r t q o * ` X.P H D D H J P P J H J J J J J J J H D D H J J J J D d d D J ",
"J J J J H J P P J H J J J S i i S J J J J D d d D D i r t q o * ' X.I D s s D P } } P H J J J J J J J D d d D J J J J H D D H J ",
"J J J J J H H H H J J J J D d d D J J J J S i i D D i r t q o & E ( S N g h D P } } P H J J J J J J J D d d D J J J H J J J J H ",
"J J J J J J J J J J J J J H D D H J J J J D i i D D i r t q o . & * # , ~ ] L J P P J H J J J J J J J H D D H J J H J J J J J J ",
"J J J J J J J J J J J J H J J H D D H H D C s d D D i r t q o     . % 3 _ | P H H H H J J J J J J J H J J H D D H J J J J J J J ",
"J J J J J J J J J J J J J J J D d d D D d s Z D J D p r t q o     & E _ U P J J J H J J J J J J J J H J J D d d D J J J J J J J ",
"J J J J J J J J J J J J J J J S i i D D d s Z D D C i r t q o . % 3 _ | P H D D H J J J J J J J J J J H D C i i S J J J J J J J ",
"J J H J J J J H J J H J J J J D i i S H D Z d i p i t r t q o & E _ U P J D d d D J J J J J J H H J J D d i r i D J J J J J J J ",
"J J J H D D H J J J J H D S D C r t G P F C i r r r r t t q o & ~ ] L H J D d d D H D S S D H J J H D V r q s h Z D H H D S D D ",
"J J J D d d D J J J J D d p p t @ - ) ] h i t r r t r t t q o O u h F J J H D D H D d i i d D J J D d r # ; ~ ) g s D D d i i i ",
"S D H D d s C D D D D C r 0 0 8 = 2 ^ ) s r i i t r t r q 7 o O e s C D H J J H D C i r r i C D D C i 0 o * ' } h s Z C i r r r ",
"i d D J D Z d i i p p t # o X - W / l s t i C Z i t t q # o   # N Z s d D J J D d i t r r t i p p i t q o * ` ..J C d i t t t r ",
"r i C D D C i r r r q 7 o . % 2 / ) s r r i Z C t 0 q 7 o     # b N u i C D D C i r r t t r r r r r q 7 X * ( } J C i r q q r t ",
"t t i p p i t t t q # o   & W / l s y t t t p t # o O o         @ * w t i p p i t t t t t t t t t q # o   $ D J f i t q # # q t ",
"q 0 0 0 0 0 0 q q 7 o     & W ~ u 0 0 q q 0 q 7 o                 o 7 q 0 0 0 0 0 q q q q q q q q 7 o     @ b M r 0 q 7 o o 7 q ",
"o o o o o o o o o o       . & & O o o o o o o o                     o o o o o o o o o o o o o o o o         @ # O o o o     o o ",
"                                                                                                                                "
};
